<svg id="location_on-black-18dp" xmlns="http://www.w3.org/2000/svg" width="32" height="32" viewBox="0 0 32 32">
  <path id="Path_1163" data-name="Path 1163" d="M0,0H32V32H0Z" fill="none"/>
  <path id="Path_1164" data-name="Path 1164" d="M14.333,2A9.327,9.327,0,0,0,5,11.333c0,7,9.333,17.333,9.333,17.333s9.333-10.333,9.333-17.333A9.327,9.327,0,0,0,14.333,2ZM7.667,11.333a6.667,6.667,0,0,1,13.333,0c0,3.84-3.84,9.587-6.667,13.173C11.56,20.947,7.667,15.133,7.667,11.333Z" transform="translate(1.667 0.667)" fill="#2e4d5c"/>
  <circle id="Ellipse_161" data-name="Ellipse 161" cx="3.333" cy="3.333" r="3.333" transform="translate(12.667 8.667)" fill="#2e4d5c"/>
</svg>
