<svg xmlns="http://www.w3.org/2000/svg" width="62.719" height="41.817" viewBox="0 0 62.719 41.817">
  <defs>
    <style>
      .cls-1 {
        fill: #f80;
      }

      .cls-2 {
        fill: #5bb1d3;
      }
    </style>
  </defs>
  <g id="logo-small" transform="translate(22.803 -6.959)">
    <g id="Layer_6" data-name="Layer 6" transform="translate(-22.803 6.959)">
      <path id="Path_942" data-name="Path 942" class="cls-1" d="M383.954,75.58a20.956,20.956,0,0,0-5.411.71l1.392,4a16.683,16.683,0,1,1-9.306,6.106l-3.736-1.989a20.906,20.906,0,1,0,17.061-8.825Z" transform="translate(-342.143 -75.575)"/>
      <path id="Path_943" data-name="Path 943" class="cls-2" d="M206.979,117.349a20.963,20.963,0,0,0,5.422-.611l-1.319-4.025a16.691,16.691,0,1,1,9.415-5.939l3.7,2.056a20.9,20.9,0,1,0-17.217,8.515Z" transform="translate(-186.449 -75.539)"/>
    </g>
  </g>
</svg>
