<svg xmlns="http://www.w3.org/2000/svg" width="26.086" height="26.086" viewBox="0 0 26.086 26.086">
  <g id="library_books-24px" opacity="0.8">
    <path id="Path_831" data-name="Path 831" d="M0,0H26.086V26.086H0Z" fill="none"/>
    <path id="Path_832" data-name="Path 832" d="M4.261,6.522H2V22.347a2.267,2.267,0,0,0,2.261,2.261H20.086V22.347H4.261ZM22.347,2H8.782A2.267,2.267,0,0,0,6.522,4.261V17.825a2.267,2.267,0,0,0,2.261,2.261H22.347a2.267,2.267,0,0,0,2.261-2.261V4.261A2.267,2.267,0,0,0,22.347,2Zm0,15.825H8.782V4.261H22.347Zm-11.3-7.913h9.043v2.261H11.043Zm0,3.391h4.522v2.261H11.043Zm0-6.782h9.043V8.782H11.043Z" transform="translate(-0.261 -0.261)" fill="#fff"/>
  </g>
</svg>
