<svg xmlns="http://www.w3.org/2000/svg" xmlns:xlink="http://www.w3.org/1999/xlink" width="99.943" height="100.001" viewBox="0 0 99.943 100.001">
  <defs>
    <clipPath id="clip-path">
      <rect width="99.943" height="100.001" fill="none"/>
    </clipPath>
  </defs>
  <g id="Repeat_Grid_3" data-name="Repeat Grid 3" clip-path="url(#clip-path)">
    <g transform="translate(-1633.058 -464)">
      <path id="Subtraction_1" data-name="Subtraction 1" d="M-3732,1044h-99.943a100.738,100.738,0,0,0,20.1-2.032,99.5,99.5,0,0,0,18.771-5.827,100.014,100.014,0,0,0,16.987-9.22,100.723,100.723,0,0,0,14.8-12.211,100.724,100.724,0,0,0,12.211-14.8,100.014,100.014,0,0,0,9.22-16.986,99.49,99.49,0,0,0,5.827-18.771A100.735,100.735,0,0,0-3732,944v100Z" transform="translate(5465 -480)" fill="#fff"/>
    </g>
  </g>
</svg>
