<svg xmlns="http://www.w3.org/2000/svg" width="32.892" height="27.832" viewBox="0 0 32.892 27.832">
  <g id="date_range-24px" opacity="0.8">
    <path id="Path_224" data-name="Path 224" d="M0,0H32.893V27.832H0Z" fill="none"/>
    <path id="Path_225" data-name="Path 225" d="M8.421,11.974h2.71v2.217H8.421ZM27.393,6.433V21.949a2.508,2.508,0,0,1-2.71,2.217H5.71A2.5,2.5,0,0,1,3,21.949L3.014,6.433a2.486,2.486,0,0,1,2.7-2.217H7.065V2h2.71V4.217H20.617V2h2.71V4.217h1.355A2.508,2.508,0,0,1,27.393,6.433ZM5.71,8.65H24.682V6.433H5.71Zm18.972,13.3V10.866H5.71V21.949Zm-5.421-7.758h2.71V11.974h-2.71Zm-5.421,0h2.71V11.974h-2.71Z" transform="translate(1.25 0.833)" fill="#fefefe"/>
  </g>
</svg>
