<svg id="local_activity-24px" xmlns="http://www.w3.org/2000/svg" width="83.127" height="83.127" viewBox="0 0 83.127 83.127">
  <path id="Path_841" data-name="Path 841" d="M0,0H83.127V83.127H0Z" fill="none"/>
  <path id="Path_842" data-name="Path 842" d="M73.252,26.266V11.422A7.3,7.3,0,0,0,66.127,4h-57a7.27,7.27,0,0,0-7.09,7.422V26.266A7.429,7.429,0,0,1,2,41.11V55.954a7.3,7.3,0,0,0,7.125,7.422h57a7.3,7.3,0,0,0,7.125-7.422V41.11a7.428,7.428,0,0,1,0-14.844Zm-7.125-5.418a15.132,15.132,0,0,0,0,25.68v9.426h-57V46.528a15.013,15.013,0,0,0,7.125-12.84,14.936,14.936,0,0,0-7.09-12.84l-.036-9.426h57ZM27.187,48.532l10.438-6.977,10.438,6.977L44.894,36.063,54.477,27.9,42.115,27.12,37.626,15.133,33.1,27.083l-12.362.779,9.583,8.164Z" transform="translate(3.938 7.875)" fill="#fff"/>
</svg>
