<svg xmlns="http://www.w3.org/2000/svg" width="26.769" height="29.542" viewBox="0 0 26.769 29.542">
  <g id="wc-24px" transform="translate(-3.227 -7.474)" opacity="0.8">
    <path id="Path_227" data-name="Path 227" d="M6.15,29.542V19.214H4V11.64A2.82,2.82,0,0,1,6.866,8.886h4.3a2.82,2.82,0,0,1,2.866,2.754v7.574h-2.15V29.542Zm17.915,0V21.279h4.3l-3.64-10.507A2.873,2.873,0,0,0,22,8.886h-.172a2.859,2.859,0,0,0-2.723,1.887l-3.64,10.507h4.3v8.263ZM9.016,7.508a2.8,2.8,0,0,0,2.866-2.754A2.8,2.8,0,0,0,9.016,2,2.8,2.8,0,0,0,6.15,4.754,2.8,2.8,0,0,0,9.016,7.508Zm12.9,0a2.8,2.8,0,0,0,2.866-2.754,2.869,2.869,0,0,0-5.733,0A2.8,2.8,0,0,0,21.915,7.508Z" transform="translate(0.227 6.474)" fill="none" stroke="#fff" stroke-width="2"/>
  </g>
</svg>
