<svg xmlns="http://www.w3.org/2000/svg" width="71.95" height="47.972" viewBox="0 0 71.95 47.972">
  <g id="Group_2056" data-name="Group 2056" transform="translate(-140.033 -41)">
    <path id="Path_1130" data-name="Path 1130" d="M387.03,75.58a24.039,24.039,0,0,0-6.207.815l1.6,4.586a19.138,19.138,0,1,1-10.675,7L367.459,85.7A23.983,23.983,0,1,0,387.03,75.58Z" transform="translate(-199.033 -34.574)" fill="#fcfcfc"/>
    <path id="Path_1131" data-name="Path 1131" d="M210,123.5a24.048,24.048,0,0,0,6.22-.7l-1.513-4.617a19.148,19.148,0,1,1,10.8-6.813l4.244,2.359A23.981,23.981,0,1,0,210,123.5Z" transform="translate(-46.416 -34.539)" fill="#fcfcfc"/>
  </g>
</svg>
