<svg xmlns="http://www.w3.org/2000/svg" width="28" height="28" viewBox="0 0 28 28">
  <g id="local_movies-24px" opacity="0.8">
    <path id="Path_833" data-name="Path 833" d="M0,0H28V28H0Z" fill="none"/>
    <path id="Path_834" data-name="Path 834" d="M16.5,5.444V22.556h-5V5.444h5M24,3H21.5V5.444H19V3H9V5.444H6.5V3H4V25H6.5V22.556H9V25H19V22.556h2.5V25H24Zm-5,7.333V7.889h2.5v2.444Zm-12.5,0V7.889H9v2.444ZM19,15.222V12.778h2.5v2.444Zm-12.5,0V12.778H9v2.444ZM19,20.111V17.667h2.5v2.444Zm-12.5,0V17.667H9v2.444Z" fill="#fff"/>
  </g>
</svg>
