<svg xmlns="http://www.w3.org/2000/svg" width="30" height="30" viewBox="0 0 30 30">
  <g id="library_music-24px" opacity="0.8">
    <path id="Path_835" data-name="Path 835" d="M0,0H30V30H0Z" fill="none"/>
    <path id="Path_836" data-name="Path 836" d="M24.846,2H9.615A2.546,2.546,0,0,0,7.077,4.538V19.769a2.546,2.546,0,0,0,2.538,2.538H24.846a2.546,2.546,0,0,0,2.538-2.538V4.538A2.546,2.546,0,0,0,24.846,2Zm0,17.769H9.615V4.538H24.846ZM15.327,18.5A3.174,3.174,0,0,0,18.5,15.327V8.346h3.808V5.808H17.231V12.8a3.106,3.106,0,0,0-1.9-.647,3.173,3.173,0,1,0,0,6.346ZM4.538,7.077H2V24.846a2.546,2.546,0,0,0,2.538,2.538H22.308V24.846H4.538Z" transform="translate(0.308 0.308)" fill="#fff"/>
  </g>
</svg>
