<svg xmlns="http://www.w3.org/2000/svg" width="26.018" height="21.682" viewBox="0 0 26.018 21.682">
  <path id="Path_1141" data-name="Path 1141" d="M11.106,18.551C8.062,18.551,2,20.363,2,23.971v2.71H20.213v-2.71C20.213,20.363,14.15,18.551,11.106,18.551ZM5.044,23.584a11.072,11.072,0,0,1,6.062-1.936,11.072,11.072,0,0,1,6.062,1.936Zm6.062-7.743c2.511,0,4.553-2.431,4.553-5.42S13.617,5,11.106,5,6.553,7.431,6.553,10.42,8.6,15.841,11.106,15.841Zm0-7.743a2.159,2.159,0,0,1,1.951,2.323,2.159,2.159,0,0,1-1.951,2.323A2.159,2.159,0,0,1,9.155,10.42,2.159,2.159,0,0,1,11.106,8.1Zm9.158,10.547a6.829,6.829,0,0,1,2.55,5.327v2.71h5.2v-2.71C28.018,20.843,23.465,19.062,20.265,18.644Zm-1.353-2.8c2.511,0,4.553-2.431,4.553-5.42S21.422,5,18.912,5a3.906,3.906,0,0,0-1.951.542,9.564,9.564,0,0,1,1.3,4.878,9.564,9.564,0,0,1-1.3,4.878A3.906,3.906,0,0,0,18.912,15.841Z" transform="translate(-2 -5)" fill="#fefefe" opacity="0.8"/>
</svg>
