<svg xmlns="http://www.w3.org/2000/svg" width="63.127" height="63.127" viewBox="0 0 63.127 63.127">
  <g id="Group_2057" data-name="Group 2057" transform="translate(0 -3)" opacity="0.3">
    <g id="Group_1958" data-name="Group 1958" transform="translate(0 3)">
      <path id="Path_973" data-name="Path 973" d="M53.882,40.808a31.442,31.442,0,0,0-11.994-7.523,18.248,18.248,0,1,0-20.649,0A31.613,31.613,0,0,0,0,63.127H63.127c0-1.278-2.383-5.088-57.563-4.972C7.3,45.874,18.156,36.5,31.563,36.5c12.776,0,23.479,9.042,26.166,21.66C7.037,58.134,7.078,61.218,7.078,63.127H63.127A31.358,31.358,0,0,0,53.882,40.808ZM31.563,31.563A13.316,13.316,0,1,1,44.879,18.248,13.331,13.331,0,0,1,31.563,31.563Z" transform="translate(0)" fill="#1c485c"/>
    </g>
  </g>
</svg>
