<svg xmlns="http://www.w3.org/2000/svg" width="22.615" height="27.139" viewBox="0 0 22.615 27.139">
  <path id="icon" d="M24.3,21.773,17.125,28.8a1.16,1.16,0,0,1-1.635,0L8.317,21.773a11.777,11.777,0,0,1,0-16.387,11.121,11.121,0,0,1,15.981,0,11.777,11.777,0,0,1,0,16.387ZM22.625,7.142a8.8,8.8,0,0,0-12.636,0A9.242,9.242,0,0,0,9.972,20l6.336,6.209,6.326-6.2a9.247,9.247,0,0,0-.008-12.867ZM16.308,18.653a4.85,4.85,0,0,1-4.761-4.934,4.85,4.85,0,0,1,4.761-4.934,4.85,4.85,0,0,1,4.761,4.934A4.85,4.85,0,0,1,16.308,18.653Zm0-2.467a2.469,2.469,0,1,0-2.381-2.467A2.425,2.425,0,0,0,16.308,16.186Z" transform="translate(-5 -2)" fill="#fff" opacity="0.8"/>
</svg>
