<svg xmlns="http://www.w3.org/2000/svg" width="26" height="29.545" viewBox="0 0 26 29.545">
  <g id="person_pin-24px" transform="translate(-3 -2)" opacity="0.8">
    <path id="Path_840" data-name="Path 840" d="M26.111,2H5.889A2.851,2.851,0,0,0,3,4.814v19.7a2.851,2.851,0,0,0,2.889,2.814h5.778L16,31.545l4.333-4.221h5.778A2.86,2.86,0,0,0,29,24.511V4.814A2.86,2.86,0,0,0,26.111,2Zm0,22.511H19.134l-.852.83L16,27.564l-2.3-2.237-.838-.816H5.889V4.814H26.111Z" transform="translate(0 0)" fill="#fff"/>
    <path id="icon" d="M15.033,12.28,11.3,15.934a.6.6,0,0,1-.85,0L6.724,12.28a6.123,6.123,0,0,1,0-8.52,5.782,5.782,0,0,1,8.308,0,6.123,6.123,0,0,1,0,8.52Zm-.869-7.607a4.574,4.574,0,0,0-6.569,0,4.8,4.8,0,0,0-.009,6.684l3.294,3.228,3.289-3.223a4.807,4.807,0,0,0,0-6.689Zm-3.285,5.984A2.521,2.521,0,0,1,8.4,8.092a2.477,2.477,0,1,1,4.95,0A2.521,2.521,0,0,1,10.879,10.658Zm0-1.283A1.283,1.283,0,1,0,9.641,8.092,1.261,1.261,0,0,0,10.879,9.375Z" transform="translate(5.091 5.853)" fill="#fff" opacity="0.9"/>
    <path id="icon-2" data-name="icon" d="M15.033,12.28,11.3,15.934a.6.6,0,0,1-.85,0L6.724,12.28a6.123,6.123,0,0,1,0-8.52,5.782,5.782,0,0,1,8.308,0,6.123,6.123,0,0,1,0,8.52Zm-.869-7.607a4.574,4.574,0,0,0-6.569,0,4.8,4.8,0,0,0-.009,6.684l3.294,3.228,3.289-3.223a4.807,4.807,0,0,0,0-6.689Zm-3.285,5.984A2.521,2.521,0,0,1,8.4,8.092a2.477,2.477,0,1,1,4.95,0A2.521,2.521,0,0,1,10.879,10.658Zm0-1.283A1.283,1.283,0,1,0,9.641,8.092,1.261,1.261,0,0,0,10.879,9.375Z" transform="translate(5.091 7.034)" fill="#fff" opacity="0.9"/>
  </g>
</svg>
