<svg xmlns="http://www.w3.org/2000/svg" width="28" height="28" viewBox="0 0 28 28">
  <g id="work_outline-24px" opacity="0.8">
    <path id="Path_238" data-name="Path 238" d="M0,0H28V28H0Z" fill="none"/>
    <path id="Path_239" data-name="Path 239" d="M16.4,6.842V4.421H11.6V6.842ZM4.4,9.263V22.579H23.6V9.263ZM23.6,6.842A2.4,2.4,0,0,1,26,9.263V22.579A2.4,2.4,0,0,1,23.6,25H4.4A2.4,2.4,0,0,1,2,22.579L2.012,9.263A2.392,2.392,0,0,1,4.4,6.842H9.2V4.421A2.4,2.4,0,0,1,11.6,2h4.8a2.4,2.4,0,0,1,2.4,2.421V6.842Z" transform="translate(0)" fill="#fff"/>
  </g>
</svg>
