<svg xmlns="http://www.w3.org/2000/svg" width="30" height="30" viewBox="0 0 30 30">
  <g id="logo" opacity="0.8">
    <path id="Path_829" data-name="Path 829" d="M0,0H30V30H0Z" fill="none"/>
    <path id="Path_830" data-name="Path 830" d="M16.107,18.991l-3.233-3.263.038-.039A22.905,22.905,0,0,0,17.635,7.2h3.729V4.6H12.455V2H9.909V4.6H1V7.187H15.216a20.525,20.525,0,0,1-4.035,6.968A20.358,20.358,0,0,1,8.242,9.8H5.7a22.885,22.885,0,0,0,3.793,5.928L3.011,22.254,4.818,24.1l6.364-6.5,3.958,4.043ZM23.273,12.4H20.727L15,28h2.545l1.425-3.9h6.045L26.455,28H29Zm-3.335,9.1L22,15.871,24.062,21.5Z" transform="translate(-1)" fill="#fff"/>
  </g>
</svg>
